<svg width="48" height="32" viewBox="0 0 48 32" xmlns="http://www.w3.org/2000/svg">
  <rect width="48" height="32" rx="4" fill="#2E77BC"/>
  <g transform="translate(5.5, -1.8) scale(1.75)" fill="#fff">
    <path d="M9.967 9.373v-.586H7.73V11.6h2.237v-.58H8.4v-.564h1.527V9.88H8.4v-.507m1.889.17l-.007.006c0-.314-.13-.5-.34-.624-.217-.125-.47-.135-.81-.135H10.43v2.82h.674v-1.034h.72c.24 0 .39.03.487.12.122.136.107.378.107.548v.354h.677v-.553c0-.25-.016-.375-.11-.516-.09-.107-.202-.19-.33-.237.172-.07.472-.3.472-.75zm-.855.396h-.015c-.09.054-.195.056-.33.056H11.1v-.623h.825c.12 0 .24.004.33.05.09.04.15.128.15.25s-.047.22-.134.266zM13.51 8.787h.685V11.6h-.684zM2.38 10.97l.254.628H4V9.393l.972 2.205h.584l.973-2.202.015 2.202h.69v-2.81H6.118l-.807 1.904-.876-1.905H3.343v2.663L2.205 8.787h-.997L.01 11.597h.72l.26-.626h1.39zm-.688-1.705l.46 1.118-.003.002h-.915l.457-1.12z"/>
    <path d="M15.92 9.373h.632v-.6h-.644c-.464 0-.804.105-1.02.33-.286.3-.362.69-.362 1.11 0 .512.123.833.36 1.074.232.238.645.31.97.31h.78l.255-.627h1.39l.262.627h1.36v-2.11l1.272 2.11h.95l.002.002V8.786h-.684v1.963l-1.18-1.96h-1.02V11.4L18.11 8.744h-1.004l-.943 2.22h-.3c-.177 0-.362-.03-.468-.134-.125-.15-.186-.36-.186-.662 0-.285.08-.51.194-.63.133-.135.272-.165.516-.165zm1.668-.108l.464 1.118v.002h-.93l.466-1.12z"/>
  </g>
</svg>