<svg width="48" height="32" viewBox="0 0 48 32" xmlns="http://www.w3.org/2000/svg">
  <rect width="48" height="32" rx="4" fill="#000"/>
  <g transform="translate(7.5, 8.5) scale(1.1)" fill="#fff">
    <path d="M7.642 2.45c.413-.51.693-1.215.617-1.92-.596.025-1.32.397-1.748.898-.383.446-.72 1.163-.63 1.849.665.052 1.344-.338 1.76-.828zM8.254 3.58c-.972-.059-1.799.553-2.262.553-.462 0-1.168-.538-1.928-.523A2.858 2.858 0 001.64 5.078C.603 7.05 1.372 10.01 2.374 11.472c.496.718 1.084 1.52 1.856 1.492.747-.03 1.028-.484 1.928-.484.9 0 1.156.484 1.944.469.803-.015 1.308-.732 1.804-1.45.563-.825.793-1.624.806-1.666-.015-.015-1.549-.598-1.564-2.366-.015-1.478 1.203-2.185 1.258-2.228-.69-1.025-1.764-1.14-2.144-1.155z"/>
  </g>
  <text x="21" y="20" font-family="-apple-system, 'Helvetica Neue', Arial, sans-serif" font-size="12" font-weight="500" letter-spacing="-0.5" fill="#fff">Pay</text>
</svg>